Coordinates
version=1
nRows=10
nColumns=22
inDegrees=yes

Units are S.I. units (second, meters, Newtons, ...)
If the header above contains a line with 'inDegrees', this indicates whether rotational values are in degrees (yes) or radians (no).

endheader
time	pelvis_tilt	pelvis_list	pelvis_rotation	pelvis_tx	pelvis_ty	pelvis_tz	hip_flexion_r	hip_adduction_r	hip_rotation_r	knee_angle_r	ankle_angle_r	subtalar_angle_r	hip_flexion_l	hip_adduction_l	hip_rotation_l	knee_angle_l	ankle_angle_l	subtalar_angle_l	lumbar_extension	lumbar_bending	lumbar_rotation
      3.73000000	      1.93637273	      2.98056665	      7.38730803	     -0.10977316	      0.91723789	     -0.45853724	     23.53843906	      2.12034496	     -1.36290297	    -72.16421612	     -7.54671939	     -3.27118066	     -0.50285246	     -4.64229924	    -14.12285363	    -18.73048073	     10.53160760	      8.34757304	     -9.72056555	     -5.79584793	     -6.64383165
      3.74000000	      2.15520745	      2.67094744	      6.97894017	     -0.10380102	      0.91739133	     -0.46021615	     24.34303077	      2.36887492	     -2.45930530	    -70.95466573	     -6.71937694	     -3.31066813	     -1.20948502	     -4.87158787	    -14.43242894	    -18.70862982	     10.85343269	      8.18745279	    -10.05528906	     -5.45326728	     -7.13602059
      3.75000000	      2.35966251	      2.41955501	      6.58229487	     -0.09782064	      0.91743567	     -0.46188911	     25.06958702	      2.50725349	     -3.53919244	    -69.52260469	     -5.91223492	     -3.30610281	     -1.93064552	     -5.02768018	    -14.75553920	    -18.65061920	     11.15194312	      8.01630727	    -10.38791557	     -5.16890421	     -7.59733119
      3.76000000	      2.54187592	      2.22322002	      6.19240240	     -0.09181206	      0.91736572	     -0.46355146	     25.72276554	      2.54062092	     -4.60618848	    -67.87006027	     -5.13126406	     -3.27931538	     -2.66389659	     -5.10979016	    -15.09155560	    -18.54410664	     11.43513478	      7.85223503	    -10.70367896	     -4.93983838	     -8.01949541
      3.77000000	      2.70582847	      2.07075546	      5.81172177	     -0.08575726	      0.91720440	     -0.46518953	     26.28828034	      2.48592665	     -5.67058029	    -65.98686898	     -4.38078908	     -3.27061188	     -3.41490669	     -5.13196349	    -15.45536689	    -18.38050203	     11.69954592	      7.69898540	    -11.00608831	     -4.75385727	     -8.40381199
      3.78000000	      2.85218756	      1.94955825	      5.44101037	     -0.07964729	      0.91696571	     -0.46678802	     26.75660773	      2.36464439	     -6.74073713	    -63.85889140	     -3.67655106	     -3.30546806	     -4.18597337	     -5.10774239	    -15.84757467	    -18.15086008	     11.95113110	      7.55848758	    -11.29473492	     -4.59681180	     -8.75192650
      3.79000000	      2.97905722	      1.85175057	      5.07500545	     -0.07346355	      0.91664795	     -0.46831349	     27.12212593	      2.19484432	     -7.82837304	    -61.48127492	     -3.01187159	     -3.39358223	     -4.97178204	     -5.04811216	    -16.27688939	    -17.86239276	     12.17801973	      7.43314310	    -11.56289138	     -4.46322588	     -9.05376740
      3.80000000	      3.07872578	      1.76794064	      4.71101817	     -0.06721146	      0.91624647	     -0.46973073	     27.38647067	      2.00520115	     -8.92799105	    -58.84378069	     -2.39450616	     -3.52428192	     -5.76270184	     -4.96396125	    -16.73764675	    -17.51275536	     12.38182380	      7.33160282	    -11.80276395	     -4.34492162	     -9.32215210
      3.81000000	      3.14841458	      1.69403182	      4.35546980	     -0.06088361	      0.91573905	     -0.47102446	     27.55101408	      1.80308269	    -10.06921211	    -55.95354485	     -1.82461159	     -3.64914921	     -6.53881338	     -4.86687986	    -17.22389251	    -17.13720484	     12.58745899	      7.26546269	    -12.00836275	     -4.24187932	     -9.53774902
      3.82000000	      3.19431996	      1.62346612	      3.99252983	     -0.05447749	      0.91515142	     -0.47213956	     27.60251043	      1.63510768	    -11.20524615	    -52.79566149	     -1.33594819	     -3.78476707	     -7.32214741	     -4.76043628	    -17.73270300	    -16.70291284	     12.76103967	      7.24016163	    -12.18661021	     -4.14666042	     -9.73936473
